<svg xmlns="http://www.w3.org/2000/svg" viewBox="0 0 125 125"><defs><style>.cls-1{fill:#fff;}</style></defs><g id="Collaboration"><path class="cls-1" d="M104.94,65.75a5,5,0,0,1-.48,5.33,7.62,7.62,0,0,1-1.39,1.39Q96,78.23,89,84c-6.88,5.56-14.32,6.29-22.28,2.52a6.8,6.8,0,0,0-.67-.3c-.15-.06-.31-.08-.71-.19-.47.58-.91,1.06-1.3,1.58-6.41,8.18-18.58,9.82-26.61,3.51L22.32,79.24a5.67,5.67,0,0,1-2.42-4.85A4.74,4.74,0,0,1,26.63,70a28,28,0,0,1,2.57,1.43,7,7,0,0,0,2.73,1c-.27-.8-.48-1.62-.79-2.41-1.83-4.65-3.7-9.28-5.48-14A9.31,9.31,0,0,1,25,52.76a4.73,4.73,0,0,1,3.81-4.52c.62-.14,1.24-.24,2.12-.42-1.19-3.34-1.65-6.53,2-8.39,2.93-1.48,5,.22,6.83,2.48,2-1.27,3.83-2.63,6.32-1.46,2.26,1,2.75,3.33,3.86,5.4.51-.31.93-.5,1.29-.77,3.21-2.48,6.63-.5,7.75,2.09.48,1.09.93,2.2,1.58,3.76a20.43,20.43,0,0,0,1.15-2.11c.72-1.91,1.36-3.86,2.07-5.78,1.6-4.32,4.81-5.43,8.7-3,.21.12.44.19.78.34,1.18-1.9,1.52-4.36,3.88-5.41s4.43-.06,6.44,1.34c1.75-2.6,4.15-3.84,7-2.61,3.8,1.64,3.32,5,2.27,8.3l1.74.26c3.2.45,4.91,2.63,4.48,5.83a12.43,12.43,0,0,1-.7,2.61c-1.36,3.77-2.76,7.54-4.13,11.3-.26.74-.46,1.51-.83,2.77,1.27-.41,2.07-.72,2.89-.91a24.87,24.87,0,0,1,4.3-.82A4.39,4.39,0,0,1,104.94,65.75Zm-2.28,4.35a3,3,0,0,0,.56-3.41,3.06,3.06,0,0,0-3.14-1.92,11.16,11.16,0,0,0-2.82.73c-2.61,1-5.17,2.07-7.78,3a3.78,3.78,0,0,1-2.33.29,9.05,9.05,0,0,0-9.62,1.79,4.56,4.56,0,0,1-1.64.47c-.12-.2-.26-.38-.38-.56a9.47,9.47,0,0,1,1.19-1.58,10.47,10.47,0,0,1,9.64-2.32c3,.64,4.07,0,5.09-2.69q2.66-7.12,5.29-14.28A9.44,9.44,0,0,0,97.23,48a3.07,3.07,0,0,0-1.91-3.57,3,3,0,0,0-3.62,1.27,10.72,10.72,0,0,0-1,2.23c-1.18,3.22-2.32,6.48-3.52,9.69-.3.78-.44,1.89-2.13,1.41a15.72,15.72,0,0,1,.52-2.65c1.82-5.09,3.71-10.16,5.56-15.23a13.22,13.22,0,0,0,.69-2.1,3.06,3.06,0,0,0-1.89-3.58,3,3,0,0,0-3.78,1.42,14.53,14.53,0,0,0-.94,2.26c-1.8,5.1-3.57,10.2-5.4,15.29a17.76,17.76,0,0,1-1.16,2.25c-1.73-.61-1.22-1.65-.93-2.52,1.18-3.5,2.4-7,3.6-10.45.38-1.09.81-2.16,1.08-3.26a3.13,3.13,0,0,0-1.8-3.65,3.08,3.08,0,0,0-3.85,1.29,10.12,10.12,0,0,0-.88,2c-1.66,4.62-3.29,9.26-5,13.87a20.87,20.87,0,0,1-1.33,2.42c-1.52-1-.9-2-.62-2.82,1-3,2.12-5.85,3.06-8.82a3.08,3.08,0,0,0-5.65-2.36A9.13,9.13,0,0,0,65.65,44c-1,2.86-2,5.74-3,8.57a5.15,5.15,0,0,0,.14,4Q65,61.91,67,67.33a18.7,18.7,0,0,1,1.09,11.08c-.44,1.81-.91,3.61-1.4,5.51A11.64,11.64,0,0,0,68.34,85c6.25,2.65,12.37,2.63,17.93-1.54,5.3-4,10.35-8.31,15.51-12.49A5.9,5.9,0,0,0,102.66,70.1ZM65.38,80.9a19,19,0,0,0-.35-13q-3.54-9.3-7.13-18.58a9.88,9.88,0,0,0-.83-1.77,2.85,2.85,0,0,0-3.62-1.22,3.08,3.08,0,0,0-1.9,3.37,10.44,10.44,0,0,0,.6,1.87C53,53.8,53.89,56,54.7,58.23a19,19,0,0,1,.53,2.5c-1.78.44-1.9-.74-2.23-1.58C51.38,55,49.79,50.9,48.18,46.78c-.33-.84-.63-1.69-1-2.49-.87-1.75-2.23-2.38-3.78-1.83s-2.29,1.86-1.94,3.76a13.79,13.79,0,0,0,.76,2.33c1.24,3.3,2.51,6.58,3.75,9.87.32.88.92,1.82-.56,2.77a19.23,19.23,0,0,1-1.24-2.29c-2-5.17-4-10.4-6-15.58a3.07,3.07,0,0,0-3.91-2.07,3.2,3.2,0,0,0-1.84,4.24c.39,1.24.91,2.46,1.37,3.68,1.6,4.12,3.21,8.25,4.79,12.37.34.87.93,1.8-.51,2.78a21.82,21.82,0,0,1-1.26-2.27c-1.14-2.81-2.21-5.65-3.33-8.46a8.75,8.75,0,0,0-1-2,3,3,0,0,0-3.52-1.07,2.92,2.92,0,0,0-1.71,3.21,10.34,10.34,0,0,0,.71,2.34c2.31,5.86,4.67,11.71,7,17.58.36.93,1.14,1.9,0,3.35-.83-.45-1.6-.85-2.35-1.29-2-1.18-3.92-2.39-5.91-3.53a2.82,2.82,0,0,0-3.43.28,2.86,2.86,0,0,0-.88,3.35A5.6,5.6,0,0,0,24,78.14c4.73,3.8,9.52,7.53,14.29,11.28C48,97,61.77,91.84,65.38,80.9Z"/></g></svg>