<svg xmlns="http://www.w3.org/2000/svg" viewBox="0 0 125 125"><defs><style>.cls-1{fill:#fff;}</style></defs><g id="Collaboration"><g id="x6FJJk"><path class="cls-1" d="M43.87,51.06l-.95.71-6-6.11L47.73,35l6,6-.75.91c.73.75,1.45,1.52,2.2,2.27,9.17,9.17,18.37,18.3,27.47,27.53A18.6,18.6,0,0,1,85.3,76c2.24,4.18,4.44,8.39,6.65,12.59a1.79,1.79,0,0,1,.27.58c0,.35.15.84,0,1a1.13,1.13,0,0,1-1,0c-1.88-.94-3.73-1.94-5.6-2.93-3.4-1.8-6.82-3.58-10.21-5.43a11,11,0,0,1-2.45-1.85q-11.05-11-22-22c-1.92-1.92-3.82-3.85-5.74-5.77C44.72,51.86,44.3,51.47,43.87,51.06Zm44.22,34c-.09-.19-.21-.44-.34-.69-1.7-3.22-3.39-6.44-5.11-9.64a4.71,4.71,0,0,0-.88-.91,9.81,9.81,0,0,0-1,1.15,2.17,2.17,0,0,0-.17.93A2.63,2.63,0,0,1,78,78.62a4.66,4.66,0,0,0-1.54.39c-.84.45-.8,1.08,0,1.53l2.46,1.31c2.55,1.35,5.09,2.71,7.65,4.05A1,1,0,0,0,88.09,85.08ZM70.83,74.32c.12-.12,5.72-5.32,5.83-5.44-8.13-8.62-17.09-16.67-25.17-25.24l-6,5.69C54.16,57.55,62.22,66.2,70.83,74.32Z"/><path class="cls-1" d="M73.75,58.67c-1.75-1.76-.26-.33-2-2C74.1,54,83.43,46.7,84,38.2c-3,1.61-14,12.07-16.57,14.41-.41-.39-1.1-1.19-1.54-1.61a3,3,0,0,1,.37-.53C72.18,45,78.05,39.53,84.76,35.07a31.79,31.79,0,0,1,4.45-2.31c.78-.35,1.84-.57,2.35.28a2.81,2.81,0,0,1,.21,2.26,30.23,30.23,0,0,1-3.29,6c-3.74,4.77-7.69,9.37-11.59,14C75.89,56.47,74.77,57.57,73.75,58.67Z"/><path class="cls-1" d="M33.92,90.08c2-2.53,2.31-5.52,2.91-8.46a5.73,5.73,0,0,1,5.47-4.85c.23,0,.45-.28.67-.45.54-.41,1.1-.82,1.62-1.27a2.79,2.79,0,0,0,.65-.76,63.32,63.32,0,0,1,7.42-10.4c.65.65,2.16,1.07,1.93,2-1,3.7.32,5.14,4.08,4.12.93-.26,1.36,1.36,2,2.06-2.18,1.63-4.42,3.38-6.74,5-1.24.88-2.64,1.55-3.89,2.42-.51.35-.73,1.16-1.25,1.48a2.79,2.79,0,0,0-1.21,2.26c-.39,2.25-1.91,3.59-3.83,4.57A25.53,25.53,0,0,1,33.92,90.08Zm3.76-2.49a15.52,15.52,0,0,0,6.25-2.2,5.41,5.41,0,0,0,1.55-2,1.53,1.53,0,0,0-.4-2.09c-.74-.6-1.32-1.41-2.07-2A2,2,0,0,0,41.52,79a3.71,3.71,0,0,0-2.71,3.12C38.43,83.86,38.08,85.64,37.68,87.59Z"/><path class="cls-1" d="M35.4,42.56c-.94-1-2-2-2.95-3.06a1.68,1.68,0,0,1,.13-2.35q3.2-3.3,6.49-6.5a1.68,1.68,0,0,1,2.43-.14c1.07,1,2,2.09,2.94,3.08Z"/></g></g></svg>