<svg xmlns="http://www.w3.org/2000/svg" viewBox="0 0 125 125"><defs><style>.cls-1{fill:#fff;}</style></defs><g id="Collaboration"><g id="_8OrXUm.tif" data-name="8OrXUm.tif"><path class="cls-1" d="M55.51,23h1.64c.12,0,.23.08.36.1a8.73,8.73,0,0,1,5.37,3.12c.33.39.62.81.86,1.13.87-.89,1.67-1.8,2.58-2.59A8.77,8.77,0,0,1,70.5,23h1.63a.6.6,0,0,0,.11.06,9.09,9.09,0,0,1,7,5.15,1.32,1.32,0,0,0,.68.55,7.58,7.58,0,0,1,5.29,7.32,1.17,1.17,0,0,0,.67,1.22A9.16,9.16,0,0,1,89.76,48a.72.72,0,0,0,.25.9,8.22,8.22,0,0,1,2.3,3.55c.19.59.32,1.21.47,1.81v1.89A12.17,12.17,0,0,1,91.3,60.4a.51.51,0,0,0,0,.45,10.14,10.14,0,0,1,1.48,4.08v1.76s-.06.06-.07.1a8.88,8.88,0,0,1-2.39,5,1,1,0,0,0-.14.57c0,.8,0,1.6-.05,2.38A9.09,9.09,0,0,1,82,82.4,1.2,1.2,0,0,0,81,83,9.83,9.83,0,0,1,65,83.72c-.42-.52-.78-1.07-1.2-1.66-.15.22-.28.4-.39.59a9.88,9.88,0,0,1-16.76.29,1.09,1.09,0,0,0-.95-.54,9.14,9.14,0,0,1-8.29-9.76A1.42,1.42,0,0,0,37,71.41,8.56,8.56,0,0,1,36.1,61.3a1.19,1.19,0,0,0,0-1.4,8.94,8.94,0,0,1,1.63-11.11A.61.61,0,0,0,37.9,48a9.15,9.15,0,0,1,4-10.83.91.91,0,0,0,.52-.94,7.55,7.55,0,0,1,5.17-7.46,1.37,1.37,0,0,0,.9-.76A9.34,9.34,0,0,1,52,24.25,10.39,10.39,0,0,1,55.51,23ZM38.23,62.65a6,6,0,0,0,1.12,7.53,1.9,1.9,0,0,1,.69,2,5.79,5.79,0,0,0,.35,3.51c1,2.53,3.47,4.38,5.86,4.18a2.08,2.08,0,0,1,2.28,1.29,7.13,7.13,0,0,0,4.61,3.54c4.73,1.27,9.15-2.49,9.4-7.25a7.53,7.53,0,0,0-7.25-8c-1,0-1.55-.54-1.53-1.3s.66-1.26,1.66-1.21a10,10,0,0,1,6.69,2.94c.12.12.25.22.45.4V47c0-2-.62-2.77-2.63-3.13l-.18-.05a1.23,1.23,0,0,1,0-2.4,2.8,2.8,0,0,1,1,0c.58.13,1.15.32,1.77.5v-.61c0-2.94,0-5.88,0-8.82a7.17,7.17,0,0,0-1.77-4.84A5.78,5.78,0,0,0,54.09,26a6.62,6.62,0,0,0-2.92,2.51l.76.19a7.3,7.3,0,0,1,3.34,1.92,1.23,1.23,0,0,1,.17,1.6,1.21,1.21,0,0,1-1.5.45,3.55,3.55,0,0,1-.71-.51,5,5,0,0,0-5.86-.47A4.8,4.8,0,0,0,45,36h.23C50,35.37,54.82,39.4,55,44.89a1.3,1.3,0,0,1-1.24,1.51c-.73,0-1.18-.55-1.29-1.42a11.2,11.2,0,0,0-.41-2.09,6.54,6.54,0,0,0-5.86-4.41c-4.45,0-7.63,5.18-5.69,9.28.62,1.31.55,1.6-.62,2.47a6.58,6.58,0,0,0,3.76,11.68,1.25,1.25,0,1,1-.08,2.5,5,5,0,0,1-1.61-.2C40.71,63.75,39.5,63.19,38.23,62.65ZM76.44,28.51a6,6,0,0,0-5.9-2.92,6.76,6.76,0,0,0-5.45,6.56c0,3.15,0,6.3,0,9.45,0,.12,0,.23,0,.39.41-.15.77-.32,1.15-.42a6.59,6.59,0,0,1,1.18-.18,1.26,1.26,0,1,1,.22,2.5c-1.83.27-2.57,1.12-2.57,2.94v23.5l.46-.43A9.94,9.94,0,0,1,72.3,67c.94,0,1.57.44,1.59,1.22s-.56,1.24-1.48,1.29A7.59,7.59,0,0,0,65.65,80a7.44,7.44,0,0,0,9.81,4.4,7.15,7.15,0,0,0,3.82-3.48,1.59,1.59,0,0,1,1.87-1,3.67,3.67,0,0,0,1.19,0,6.67,6.67,0,0,0,5.28-7.6,2.05,2.05,0,0,1,.66-2.07,6.56,6.56,0,0,0,1.36-1.86,5.91,5.91,0,0,0-.28-5.81l-.18.06c-.12.08-.25.16-.36.25a8.24,8.24,0,0,1-4.62,1.6,1.3,1.3,0,0,1-1.48-1.21,1.27,1.27,0,0,1,1.34-1.29,6.56,6.56,0,0,0,6.06-5.39,6.09,6.09,0,0,0-2.52-6.4c-.9-.68-1.07-1.12-.62-2a6.44,6.44,0,0,0-.9-7.34A5.79,5.79,0,0,0,77.6,40a7,7,0,0,0-2.45,5,1.26,1.26,0,1,1-2.5-.09,11.39,11.39,0,0,1,.12-1.31,9.12,9.12,0,0,1,7.44-7.56C81,36,81.85,36,82.68,36a4.94,4.94,0,0,0-3.49-4.78,5,5,0,0,0-5,1.16,1.26,1.26,0,0,1-1.9,0,1.3,1.3,0,0,1,.29-1.88A7.69,7.69,0,0,1,76.44,28.51Z"/><path class="cls-1" d="M52.26,54a20.74,20.74,0,0,1-2.64-1.05,8.64,8.64,0,0,1-4.68-7.53A1.31,1.31,0,0,1,45.67,44a1,1,0,0,1,1.28.18,2.39,2.39,0,0,1,.5,1.22A6.1,6.1,0,0,0,51,50.77a6,6,0,0,0,6.52-.58l.5-.38a1.26,1.26,0,0,1,1.75.21,1.23,1.23,0,0,1-.2,1.74,8,8,0,0,1-3.76,1.93,1.27,1.27,0,0,0-1.17,1A6.24,6.24,0,0,1,48.86,59a1.29,1.29,0,0,1-1.39-1.17,1.25,1.25,0,0,1,1.28-1.33A3.87,3.87,0,0,0,52,54.6,5.84,5.84,0,0,0,52.26,54Z"/><path class="cls-1" d="M55,80.86c0,.92-.44,1.52-1.19,1.56s-1.28-.53-1.32-1.44a6.77,6.77,0,0,0-6.25-6.49A1.25,1.25,0,0,1,45,73.16,1.28,1.28,0,0,1,46.4,72,9.22,9.22,0,0,1,55,80.86Z"/><path class="cls-1" d="M47.56,69.63a1.37,1.37,0,0,1-1.07-2.11,11.39,11.39,0,0,1,9.6-5.61,1.28,1.28,0,0,1,1.32.78,1.06,1.06,0,0,1-.32,1.36,2.21,2.21,0,0,1-1.15.37,8.88,8.88,0,0,0-6.53,3.3c-.3.37-.51.83-.84,1.17A6.25,6.25,0,0,1,47.56,69.63Z"/><path class="cls-1" d="M75.41,53.86a3.61,3.61,0,0,0,3.15,2.61h.19c.93.08,1.48.6,1.43,1.34A1.33,1.33,0,0,1,78.54,59a6.2,6.2,0,0,1-5.65-4.61.69.69,0,0,0-.62-.58,8.54,8.54,0,0,1-4-1.83c-.74-.59-.91-1.26-.47-1.89s1.21-.71,2-.11A6.26,6.26,0,0,0,75,51.34a6.32,6.32,0,0,0,5.22-5.94c.06-1.11.83-1.75,1.7-1.4a1.33,1.33,0,0,1,.83,1.41,8.87,8.87,0,0,1-6.7,8.3Z"/><path class="cls-1" d="M72.65,80.84A9.22,9.22,0,0,1,80.58,72a3.78,3.78,0,0,1,.75,0,1.29,1.29,0,0,1,1.37,1.2,1.27,1.27,0,0,1-1.26,1.3,6.1,6.1,0,0,0-3,.89,6.91,6.91,0,0,0-3.3,5.43c0,.17,0,.34,0,.5a1.24,1.24,0,0,1-2.48-.09A2.38,2.38,0,0,1,72.65,80.84Z"/><path class="cls-1" d="M71.74,61.91a11.3,11.3,0,0,1,9.31,5.45,1.32,1.32,0,0,1-.22,1.94A1.29,1.29,0,0,1,79,68.75,8.69,8.69,0,0,0,74,64.86a13.46,13.46,0,0,0-2.46-.42c-.92-.1-1.49-.59-1.45-1.32S70.79,61.88,71.74,61.91Z"/></g><g id="f3iYvU.tif"><path class="cls-1" d="M63.81,93.53H55.64a4.9,4.9,0,0,1-1-.08,1.64,1.64,0,0,1-1.36-1.8,1.88,1.88,0,0,1,1.79-1.43H72.16c1.28,0,2.15.73,2.11,1.73a1.77,1.77,0,0,1-1.73,1.56c-.25,0-.51,0-.77,0Z"/><path class="cls-1" d="M63.79,96.1h8.38c1.15,0,2,.59,2.09,1.44.13,1-.73,1.85-2,1.87a.75.75,0,0,1-.15,0c-5.59,0-11.17,0-16.76,0A1.93,1.93,0,0,1,53.26,98c-.15-1,.67-1.82,1.9-1.89h8.63Z"/><path class="cls-1" d="M63.7,105.18h-4c-1.31,0-2.22-.69-2.2-1.66s.91-1.64,2.18-1.65H68a1.88,1.88,0,0,1,2,1.39,1.6,1.6,0,0,1-1.21,1.79,3.39,3.39,0,0,1-.91.12Z"/></g></g></svg>