<svg xmlns="http://www.w3.org/2000/svg" viewBox="0 0 125 125"><defs><style>.cls-1{fill:#fff;}</style></defs><g id="Collaboration"><g id="XEie0T"><path class="cls-1" d="M92.22,90.52c.11.09.24.16.34.26l7.81,7.81a3.84,3.84,0,0,1,0,5.27,3.48,3.48,0,0,1-1.93,1,3.77,3.77,0,0,1-2.83-.55,3.94,3.94,0,0,1-.45-.36L85,93.74l-.14-.13-.68.39a14.35,14.35,0,0,1-3,1.36,14,14,0,0,1-3.26.78l-1.57.14c-.34,0-.68,0-1,0a19.89,19.89,0,0,1-3.76-.44,17.41,17.41,0,0,1-4.36-1.65,14.65,14.65,0,0,1-2.75-1.87c-.45-.39-.9-.79-1.34-1.2a1.57,1.57,0,0,1-.21-.24,1.21,1.21,0,0,0-1-.52q-15.42,0-30.85,0a3.93,3.93,0,0,1-2.9-1.15,3.68,3.68,0,0,1-1.11-2.65q0-25.16,0-50.3A3.52,3.52,0,0,1,28,34a4,4,0,0,1,2.43-1.28H93.16a3.45,3.45,0,0,1,2.19.85,3.79,3.79,0,0,1,1.36,2.24,2.33,2.33,0,0,1,.08.59q0,25.17,0,50.35a3.56,3.56,0,0,1-1,2.39,3.75,3.75,0,0,1-2.34,1.24c-.38,0-.76,0-1.15.07ZM90.33,88H93a1.52,1.52,0,0,0,1.4-1.52V45.79h-65V85.68a7.31,7.31,0,0,0,.06,1,1.41,1.41,0,0,0,.54,1,1.85,1.85,0,0,0,1.22.36q14.6,0,29.21,0h.29a17.31,17.31,0,0,1-2.13-5.33H34.86a1.2,1.2,0,0,1-1.27-1.17,1.24,1.24,0,0,1,1.26-1.2c7.66,0,15.32,0,23,0h.39a17.52,17.52,0,0,1,.31-5h-.29c-.88,0-1.76,0-2.64,0a1.18,1.18,0,0,1,0-2.36H59a.3.3,0,0,0,.34-.24,16.94,16.94,0,0,1,2.25-4.11l.44-.6H34.82a1.2,1.2,0,0,1-1.23-1.19,1.22,1.22,0,0,1,1.24-1.18H64.08a.74.74,0,0,0,.41-.13c.36-.25.7-.54,1.06-.8a15.11,15.11,0,0,1,3.7-2,17.06,17.06,0,0,1,2.53-.74,25.94,25.94,0,0,1,3-.41,10,10,0,0,1,1.73,0c.6,0,1.19.11,1.79.19a16.44,16.44,0,0,1,4.49,1.37A17.18,17.18,0,0,1,87.2,66.2a16.61,16.61,0,0,1,2.63,3,18,18,0,0,1,1.79,3.39,17.25,17.25,0,0,1,1.19,5.59,17.57,17.57,0,0,1-.22,3.62,17.13,17.13,0,0,1-1.46,4.65C90.88,87,90.59,87.51,90.33,88Zm4.09-44.62v-.3c0-2.14,0-4.27,0-6.41a1.59,1.59,0,0,0-1.6-1.61h-62a1.53,1.53,0,0,0-.88.36,1.68,1.68,0,0,0-.56,1.39q0,3.15,0,6.3c0,.09,0,.17,0,.26ZM75.26,64a15,15,0,0,0-13,7.9A14.31,14.31,0,0,0,60.54,79a14.62,14.62,0,0,0,4.27,10.45A14.47,14.47,0,0,0,75.19,94,15,15,0,1,0,75.26,64ZM86.86,92.2l7.67,7.68L96.37,98c-2.56-2.57-5.15-5.15-7.66-7.66Zm9.39,9.44c.18.18.37.35.54.54a1.28,1.28,0,0,0,1.06.4,1.32,1.32,0,0,0,1.22-1.49c-.07-.63-.55-1-.92-1.34Z"/><path class="cls-1" d="M89,58.42a1.1,1.1,0,0,1,1.08.64A1.19,1.19,0,0,1,90,60.32a1.13,1.13,0,0,1-1,.47H55.68a1.2,1.2,0,0,1-1.25-1.14,1.15,1.15,0,0,1,1.11-1.23,4.69,4.69,0,0,1,.53,0"/><path class="cls-1" d="M48,53.48c-4.4,0-8.79,0-13.19,0a1.24,1.24,0,0,1-1.23-1.19,1.19,1.19,0,0,1,1.23-1.19H61.19a1.19,1.19,0,0,1,.92,2,1,1,0,0,1-.84.38H48Z"/><path class="cls-1" d="M77.44,53.48H65.84a1.12,1.12,0,0,1-1.15-1.08,1.15,1.15,0,0,1,1.12-1.29H89a1.12,1.12,0,0,1,1.21.85,1.15,1.15,0,0,1-1.12,1.52Z"/><path class="cls-1" d="M43.21,60.79H34.82a1.2,1.2,0,0,1-1.23-1.19,1.17,1.17,0,0,1,1.21-1.17H51.62a1.2,1.2,0,0,1,1.16.89,1.24,1.24,0,0,1-.52,1.31,1.33,1.33,0,0,1-.65.16Z"/><path class="cls-1" d="M43.22,73.05c2.79,0,5.57,0,8.35,0a1.19,1.19,0,0,1,1.09,1.78,1.16,1.16,0,0,1-1.07.59H34.82a1.2,1.2,0,0,1-1.17-.82,1.22,1.22,0,0,1,.5-1.38,1.44,1.44,0,0,1,.65-.15Z"/><path class="cls-1" d="M35.09,39.23a1.58,1.58,0,0,1,1.57-1.59,1.6,1.6,0,1,1-.07,3.2A1.58,1.58,0,0,1,35.09,39.23Z"/><path class="cls-1" d="M42.94,40.83a1.58,1.58,0,0,1-1.61-1.69A1.64,1.64,0,0,1,43,37.64a1.61,1.61,0,0,1,1.54,1.66A1.57,1.57,0,0,1,42.94,40.83Z"/><path class="cls-1" d="M49.18,40.83a1.57,1.57,0,0,1-1.59-1.64,1.6,1.6,0,0,1,3.2.08A1.58,1.58,0,0,1,49.18,40.83Z"/><path class="cls-1" d="M86.86,79a11.37,11.37,0,1,1-22.73-.15A11.35,11.35,0,0,1,75.88,67.64,11.34,11.34,0,0,1,86.86,79ZM75.27,69.66A9.14,9.14,0,0,0,69,72.32,9.32,9.32,0,1,0,82.27,85.39a8.88,8.88,0,0,0,2.54-6.13A9.38,9.38,0,0,0,75.27,69.66Z"/></g></g></svg>