<svg xmlns="http://www.w3.org/2000/svg" viewBox="0 0 125 125"><defs><style>.cls-1{fill:#fff;}</style></defs><g id="Collaboration"><g id="_1GfMLW.tif" data-name="1GfMLW.tif"><path class="cls-1" d="M15.6,65.44c7.36-7.34,14.75-14.64,22-22,1.43-1.45,2.28-1.54,3.75,0,6.4,6.53,12.92,12.94,19.41,19.38.6.6,1.23,1.18,1.94,1.86.69-.65,1.31-1.21,1.9-1.81,6.54-6.5,13.1-13,19.58-19.53,1.26-1.28,2.05-1.46,3.41-.08Q98,53.7,108.5,64.06c1.36,1.34,1.38,2.33,0,3.68Q98,78.12,87.63,88.62c-1.35,1.37-2.14,1.23-3.41-.05-6.48-6.56-13-13-19.58-19.54-.6-.59-1.22-1.16-2-1.86L47.83,82c-2.21,2.21-4.51,4.34-6.62,6.64-1.28,1.4-2.11,1.28-3.4,0C30.45,81.14,23,73.77,15.6,66.38ZM85.87,86.33v-41L65.44,65.93Zm-47.26-.67V46.32L18.82,66Z"/></g></g></svg>