<?xml version="1.0" encoding="utf-8"?>
<!-- Generator: Adobe Illustrator 26.0.3, SVG Export Plug-In . SVG Version: 6.00 Build 0)  -->
<svg version="1.1" id="Layer_1" xmlns="http://www.w3.org/2000/svg" xmlns:xlink="http://www.w3.org/1999/xlink" x="0px" y="0px"
	 viewBox="0 0 125 125" style="enable-background:new 0 0 125 125;" xml:space="preserve">
<style type="text/css">
	.st0{fill:#FFFFFF;}
	.st1{fill:#F7F7F7;}
</style>
<g id="Collaboration">
	<g id="tDppEi.tif">
		<path class="st0" d="M95.7,95.1H29.3c-0.3-0.1-0.6-0.1-0.8-0.2c-3.9-0.7-6.9-4-7.1-8c-0.1-1.4,0.6-2.1,2-2.2c0.9,0,1.8,0,2.8,0
			h1.3c-0.8-1.6-1.2-3.4-1-5.2c0-11.8,0-23.6,0-35.3c0-4.7,2.8-7.5,7.5-7.5H91c0.8,0,1.6,0.1,2.3,0.2c3.2,0.8,5.1,3.5,5.1,7
			c0,11.4,0,22.9,0,34.3c0,2.1,0.3,4.3-0.9,6.4c1.4,0,2.6,0,3.8,0c1-0.2,1.9,0.3,2.4,1.2v1.7c-0.1,0.2-0.2,0.4-0.2,0.6
			c-0.7,3.3-3.2,5.8-6.5,6.5C96.6,95,96.1,95,95.7,95.1z M62.4,84.8h15.4c4.5,0,9,0,13.6,0c2.3,0,3.7-1.3,3.7-3.5
			c0-12.5,0-25,0-37.5c0.1-1.9-1.3-3.4-3.2-3.5c-0.1,0-0.2,0-0.3,0H33.4c-1.9-0.1-3.5,1.3-3.6,3.2c0,0.1,0,0.3,0,0.4
			c0,12.5,0,25,0,37.4c-0.1,1.8,1.3,3.4,3.1,3.5c0.1,0,0.2,0,0.3,0c0.4,0,0.8,0,1.1,0H62.4z M25.2,88.3c0,0.1,0,0.1,0,0.2
			c0,0.1,0,0.2,0.1,0.3c0.9,2,3,3.2,5.2,3h64.1c0.5,0,1,0,1.5-0.1c1.8-0.3,3.2-1.6,3.8-3.2L25.2,88.3z"/>
		<path class="st1" d="M58.1,74.7c0.6-2.7,1.1-5.1,1.6-7.4l3.5-16.5c0-0.2,0.1-0.4,0.2-0.6c0.2-0.9,1.1-1.5,2-1.3c0,0,0,0,0,0
			c0.9,0.2,1.5,1,1.3,1.9c0,0,0,0.1,0,0.1c-0.4,2.3-0.9,4.6-1.4,6.8c-1.2,5.5-2.4,11.1-3.6,16.7c-0.1,0.6-0.4,1.1-0.8,1.5
			c-0.5,0.3-1.2,0.3-1.7,0.1C58.7,75.7,58.4,75,58.1,74.7z"/>
		<path class="st1" d="M47.5,62.5c1.4,1.9,2.8,3.7,4.2,5.6c0.6,0.6,0.7,1.6,0.1,2.3c-0.6,0.7-1.6,0.9-2.3,0.3
			c-0.1-0.1-0.2-0.2-0.3-0.3c-1.9-2.5-3.8-5-5.7-7.6c-0.1-0.3-0.1-0.6,0.1-0.8c1.8-2.5,3.7-4.9,5.5-7.3c0.5-0.8,1.6-1,2.4-0.5
			c0,0,0,0,0,0c0.8,0.5,1,1.6,0.4,2.4c0,0.1-0.1,0.1-0.1,0.1C50.4,58.7,49,60.5,47.5,62.5z"/>
		<path class="st1" d="M77.5,62.5l-4.3-5.7c-0.5-0.6-0.6-1.4-0.2-2c0.3-0.7,1.1-1,1.8-0.8c0.4,0.1,0.8,0.4,1.1,0.8
			c1.8,2.4,3.7,4.8,5.4,7.3c0.2,0.3,0.2,0.7,0,1c-1.8,2.4-3.6,4.9-5.4,7.3c-0.5,0.8-1.5,1-2.3,0.5c-0.1,0-0.1-0.1-0.1-0.1
			c-0.7-0.6-0.9-1.6-0.3-2.4c0-0.1,0.1-0.1,0.1-0.2C74.6,66.3,76,64.4,77.5,62.5z"/>
	</g>
</g>
</svg>
